<?xml version="1.0" standalone="no"?>
<!DOCTYPE svg PUBLIC "-//W3C//DTD SVG 20010904//EN"
 "http://www.w3.org/TR/2001/REC-SVG-20010904/DTD/svg10.dtd">
<svg version="1.0" xmlns="http://www.w3.org/2000/svg"
 width="1280.000000pt" height="1280.000000pt" viewBox="0 0 1280.000000 1280.000000"
 preserveAspectRatio="xMidYMid meet">

<g transform="translate(0.000000,1280.000000) scale(0.100000,-0.100000)"
fill="white" stroke="none">
<path d="M6405 10704 c-16 -2 -70 -9 -120 -15 -172 -20 -341 -71 -570 -172
-387 -169 -788 -571 -957 -959 -109 -249 -155 -414 -178 -637 -23 -236 -3
-504 55 -715 27 -101 104 -297 165 -418 142 -284 443 -603 741 -783 172 -104
446 -209 644 -247 106 -20 150 -23 380 -23 244 1 268 2 386 27 148 32 281 77
447 151 214 96 371 207 557 392 211 210 328 381 435 633 112 268 148 432 157
717 10 370 -47 622 -217 967 -156 314 -459 635 -778 822 -108 63 -370 170
-496 202 -56 15 -144 32 -196 40 -95 14 -398 26 -455 18z m714 -450 c2 -2 -1
-28 -8 -57 -7 -28 -41 -187 -76 -352 -35 -165 -122 -572 -194 -905 -71 -333
-182 -850 -246 -1150 -64 -300 -121 -562 -126 -582 l-10 -38 -204 0 c-234 0
-216 -10 -189 100 8 36 84 394 169 795 85 402 190 897 234 1100 44 204 114
530 156 725 42 195 80 360 85 365 8 10 399 9 409 -1z m-1189 -589 c0 -3 -107
-181 -237 -397 -130 -216 -248 -420 -261 -453 -33 -81 -33 -160 -1 -240 23
-54 237 -417 425 -719 41 -66 71 -122 67 -125 -4 -4 -112 -5 -240 -3 l-232 4
-167 291 c-92 161 -202 351 -243 422 -120 209 -132 260 -87 377 27 72 441 782
484 831 14 15 39 17 254 17 131 0 238 -2 238 -5z m1762 -32 c14 -17 294 -489
406 -687 94 -164 113 -265 68 -362 -21 -46 -274 -490 -381 -669 -23 -38 -59
-100 -79 -137 l-38 -68 -240 0 -240 0 19 29 c10 17 54 90 99 163 372 610 401
663 411 745 9 78 -16 142 -133 338 -332 558 -384 646 -384 655 0 6 90 10 238
10 215 0 240 -2 254 -17z"/>
<path d="M2075 5654 c-175 -26 -287 -60 -405 -120 -256 -132 -414 -369 -465
-698 -26 -164 -17 -445 18 -577 84 -319 265 -533 541 -640 153 -59 399 -96
571 -85 207 12 410 57 525 116 58 30 120 71 120 80 0 6 -108 210 -116 219 -2
2 -44 -15 -94 -38 -116 -54 -204 -76 -365 -92 -116 -11 -144 -10 -243 5 -181
28 -304 86 -412 195 -80 81 -131 178 -165 315 -22 85 -25 121 -25 265 0 234
32 362 127 504 78 118 214 211 368 253 94 25 293 30 416 9 102 -17 231 -59
296 -97 18 -11 39 -18 47 -15 19 8 128 194 124 214 -9 45 -227 136 -403 168
-87 16 -394 29 -460 19z"/>
<path d="M6782 5610 c-54 -23 -53 -2 -50 -1023 3 -876 4 -944 21 -974 12 -23
27 -34 51 -39 19 -3 209 -4 423 -1 335 4 403 8 498 25 211 40 355 106 476 220
128 120 204 263 251 473 20 92 23 129 22 314 0 175 -4 226 -21 305 -77 345
-251 546 -564 649 -147 48 -199 53 -654 57 -264 2 -439 0 -453 -6z m858 -285
c339 -67 484 -309 467 -785 -9 -264 -56 -408 -170 -524 -71 -72 -160 -119
-265 -141 -88 -18 -296 -35 -438 -35 -102 0 -114 2 -124 19 -11 22 -15 1364
-3 1446 l6 48 221 -6 c144 -3 251 -11 306 -22z"/>
<path d="M3860 5044 c-103 -19 -178 -42 -259 -81 -169 -81 -287 -224 -343
-418 -20 -71 -23 -102 -23 -265 0 -169 2 -191 24 -255 59 -173 175 -311 326
-387 114 -58 339 -108 484 -108 78 0 245 25 340 51 87 23 229 89 255 117 17
20 16 23 -30 112 -26 50 -51 93 -55 95 -4 3 -43 -10 -86 -29 -135 -57 -228
-76 -383 -76 -195 0 -315 33 -417 116 -54 44 -104 143 -106 210 l-2 49 570 5
c314 3 576 9 584 14 41 27 51 124 26 267 -41 236 -155 410 -325 498 -123 64
-207 83 -395 86 -88 2 -171 1 -185 -1z m255 -224 c164 -24 258 -109 309 -279
9 -30 16 -72 16 -93 l0 -38 -52 -1 c-223 -5 -776 -6 -790 -3 -31 9 -19 110 23
200 80 169 260 247 494 214z"/>
<path d="M9355 5043 c-181 -28 -317 -94 -431 -207 -139 -139 -195 -296 -196
-556 -1 -232 53 -380 192 -521 61 -63 92 -85 170 -122 109 -53 170 -70 324
-93 131 -19 242 -15 401 16 164 32 355 118 355 159 0 28 -91 193 -103 188
-240 -98 -298 -110 -497 -104 -121 3 -167 9 -210 24 -130 47 -196 97 -237 177
-28 54 -53 143 -46 164 4 9 128 12 574 12 l570 0 24 26 c29 31 39 86 30 167
-14 131 -37 213 -86 315 -87 181 -215 283 -419 337 -64 17 -346 29 -415 18z
m330 -240 c136 -44 218 -146 246 -308 9 -51 9 -69 0 -78 -9 -9 -123 -13 -414
-14 -221 -1 -410 1 -421 4 -16 4 -18 13 -14 62 15 172 150 320 320 350 70 13
220 4 283 -16z"/>
<path d="M10650 5011 l-125 -6 1 -40 c1 -28 27 -96 89 -225 48 -102 152 -324
232 -495 273 -584 309 -654 338 -665 14 -5 70 -10 124 -10 86 0 102 3 126 22
32 25 56 73 399 804 234 499 272 587 261 604 -4 6 -72 10 -176 10 l-169 0 -20
-32 c-17 -28 -303 -685 -390 -898 -15 -36 -31 -64 -36 -64 -5 1 -39 71 -75
155 -267 625 -353 820 -365 830 -18 15 -66 17 -214 10z"/>
<path d="M5081 4984 c-40 -51 -41 -179 -1 -218 20 -20 32 -21 431 -24 331 -2
410 -5 407 -16 -2 -7 -191 -210 -421 -452 -230 -241 -428 -457 -440 -479 -16
-30 -21 -58 -22 -112 0 -118 -66 -108 673 -111 451 -2 645 1 664 9 14 6 34 26
42 44 20 41 21 135 2 180 l-15 35 -163 2 c-90 1 -283 2 -430 1 -224 -1 -268 1
-268 13 0 13 102 128 295 334 198 211 483 526 512 567 18 25 37 61 44 81 13
40 6 136 -12 158 -10 12 -108 14 -644 14 l-634 0 -20 -26z"/>
</g>
</svg>
