<?xml version="1.0" standalone="no"?>
<!DOCTYPE svg PUBLIC "-//W3C//DTD SVG 20010904//EN"
 "http://www.w3.org/TR/2001/REC-SVG-20010904/DTD/svg10.dtd">
<svg version="1.0" xmlns="http://www.w3.org/2000/svg"
 width="2360.000000pt" height="720.000000pt" viewBox="0 0 2360.000000 720.000000"
 preserveAspectRatio="xMidYMid meet">

<g transform="translate(0.000000,720.000000) scale(0.100000,-0.100000)"
fill="white" stroke="none">
<path d="M4935 5029 c-271 -25 -535 -130 -780 -311 -188 -139 -316 -287 -443
-516 -73 -131 -140 -318 -161 -447 -28 -179 -33 -307 -17 -460 18 -167 66
-353 120 -470 91 -196 274 -441 413 -551 146 -116 164 -129 259 -182 185 -105
348 -162 539 -187 452 -60 874 55 1224 334 286 228 504 593 560 936 29 181 30
387 1 577 -46 302 -287 713 -536 914 -272 218 -523 326 -839 359 -156 16 -202
17 -340 4z m601 -361 c-3 -13 -18 -77 -32 -143 -14 -66 -68 -319 -120 -563
-96 -448 -168 -790 -184 -872 -5 -25 -47 -227 -95 -449 -47 -223 -85 -406 -85
-408 0 -8 -319 -2 -324 6 -3 5 1 38 9 73 9 34 101 473 206 973 176 841 283
1345 295 1388 5 15 22 17 171 17 l165 0 -6 -22z m-934 -453 c-4 -6 -23 -35
-43 -65 -20 -30 -89 -145 -154 -255 -225 -380 -240 -416 -207 -523 13 -39 87
-173 206 -371 102 -170 188 -316 191 -323 4 -11 -31 -12 -184 -10 l-189 3 -40
67 c-99 167 -306 539 -333 597 -58 128 -48 190 60 375 218 371 293 496 305
505 18 14 397 14 388 0z m1540 -265 c81 -135 169 -288 195 -340 42 -83 48
-102 47 -155 -1 -83 -27 -141 -183 -410 -189 -324 -199 -341 -206 -364 -3 -12
-12 -21 -18 -21 -67 -3 -372 2 -376 5 -2 3 3 13 11 22 44 52 368 609 389 670
37 107 31 122 -215 532 -97 162 -176 298 -176 303 0 5 86 7 192 6 l192 -3 148
-245z"/>
<path d="M8675 4543 c-499 -65 -799 -305 -911 -729 -61 -233 -59 -533 5 -789
77 -309 295 -543 601 -646 293 -98 652 -101 970 -8 119 34 270 116 270 145 0
9 -22 53 -50 100 -27 47 -50 88 -50 93 0 5 -7 14 -15 21 -11 9 -28 5 -87 -23
-164 -78 -311 -109 -518 -110 -103 -1 -143 4 -226 25 -157 40 -243 87 -344
188 -138 137 -195 282 -209 528 -20 339 38 540 205 709 69 71 94 89 175 127
52 24 117 49 144 56 141 34 384 30 538 -9 43 -11 116 -38 164 -61 47 -22 91
-40 98 -40 11 0 54 66 114 174 13 24 22 50 18 58 -9 24 -174 104 -273 133
-173 51 -465 78 -619 58z"/>
<path d="M13653 4504 c-13 -3 -32 -17 -43 -31 -20 -25 -20 -37 -20 -1042 0
-992 1 -1017 20 -1048 11 -18 31 -35 45 -39 14 -3 211 -4 437 -1 354 5 429 8
523 25 246 45 415 124 545 255 64 65 64 65 111 137 138 210 195 569 146 910
-17 121 -43 228 -58 245 -5 5 -9 16 -9 25 0 8 -14 42 -30 74 -134 264 -344
407 -687 467 -104 18 -168 21 -538 24 -231 2 -430 1 -442 -1z m832 -298 c178
-24 305 -83 393 -182 81 -91 115 -167 149 -339 29 -147 17 -546 -19 -600 -3
-6 -9 -27 -13 -49 -8 -40 -64 -155 -90 -184 -154 -170 -289 -213 -716 -227
-195 -6 -206 -6 -211 12 -2 10 -2 370 0 801 l4 782 202 0 c111 0 245 -6 301
-14z"/>
<path d="M10575 3900 c-106 -14 -228 -50 -315 -93 -68 -33 -102 -58 -170 -127
-90 -89 -126 -147 -166 -264 -45 -132 -60 -326 -37 -486 18 -126 55 -215 129
-311 134 -175 300 -262 579 -304 172 -26 325 -15 520 37 117 31 295 118 295
144 0 4 -21 50 -47 101 -34 67 -53 93 -66 93 -10 0 -49 -13 -86 -30 -38 -16
-114 -41 -170 -56 -95 -24 -113 -26 -264 -21 -170 5 -229 17 -329 68 -116 59
-183 153 -204 285 -5 36 -3 43 12 47 11 3 282 5 604 5 416 -1 591 2 606 10 62
33 68 147 21 362 -28 130 -117 282 -216 371 -147 132 -439 202 -696 169z m307
-250 c166 -51 261 -177 285 -377 4 -38 3 -43 -19 -48 -12 -3 -221 -4 -463 -3
l-440 3 -3 22 c-5 32 24 139 53 198 46 95 130 167 234 202 91 30 260 32 353 3z"/>
<path d="M16368 3895 c-398 -63 -623 -291 -660 -670 -14 -140 -14 -139 0 -271
23 -227 147 -416 350 -531 135 -77 382 -129 568 -120 200 11 420 70 548 147
53 33 67 55 47 75 -5 6 -28 47 -51 93 -22 45 -42 82 -44 82 -2 0 -42 -16 -88
-36 -162 -69 -212 -79 -418 -79 -179 0 -188 1 -265 29 -162 58 -259 153 -281
275 -4 20 -11 44 -16 54 -6 12 -5 23 3 34 12 13 82 15 609 12 564 -4 596 -3
622 14 15 11 31 29 35 40 10 29 6 191 -7 250 -5 26 -15 68 -20 94 -6 26 -15
52 -20 57 -6 6 -10 16 -10 23 0 21 -85 163 -126 211 -152 176 -468 265 -776
217z m317 -240 c106 -28 210 -102 229 -163 4 -12 12 -22 17 -22 5 0 9 -8 9
-17 0 -10 7 -31 16 -48 9 -18 16 -59 17 -105 l2 -75 -449 -3 c-248 -1 -453 1
-457 5 -4 5 -4 42 1 83 19 161 127 289 288 341 74 23 243 25 327 4z"/>
<path d="M17655 3861 l-60 -6 3 -38 c2 -22 14 -60 26 -85 25 -50 86 -179 159
-332 25 -52 57 -121 72 -154 14 -32 53 -115 86 -185 105 -220 117 -245 142
-301 24 -54 90 -195 149 -317 45 -93 52 -97 177 -101 167 -5 162 -10 325 339
27 57 70 149 96 204 26 55 58 123 70 150 23 50 76 164 155 330 40 83 72 151
154 327 33 72 58 154 50 163 -10 9 -253 18 -310 11 l-56 -7 -38 -77 c-20 -42
-41 -86 -46 -97 -20 -50 -51 -122 -59 -140 -35 -77 -60 -140 -60 -151 0 -8 -4
-14 -9 -14 -5 0 -12 -12 -15 -27 -4 -16 -21 -57 -37 -93 -34 -73 -41 -88 -94
-215 -21 -49 -47 -109 -57 -132 -10 -23 -18 -53 -18 -67 0 -35 -32 -51 -54
-27 -9 9 -16 26 -16 35 0 10 -16 52 -35 93 -19 41 -35 79 -35 83 0 5 -7 21
-15 37 -8 15 -24 51 -35 78 -12 28 -27 64 -35 80 -17 37 -53 121 -95 220 -12
28 -25 59 -30 70 -5 11 -21 49 -35 85 -15 36 -36 85 -47 110 -11 25 -29 63
-38 86 -31 71 -38 74 -163 72 -62 -1 -139 -4 -172 -7z"/>
<path d="M11835 3828 c-25 -30 -27 -36 -23 -121 5 -138 -36 -127 489 -127 241
0 439 -4 439 -8 0 -5 -30 -40 -67 -79 -38 -38 -97 -101 -132 -139 -80 -85
-261 -274 -436 -454 -252 -259 -289 -303 -308 -362 -32 -102 -14 -180 43 -192
18 -3 325 -6 682 -6 727 0 706 -2 735 67 11 29 14 55 9 108 -5 58 -10 74 -32
93 l-26 23 -450 -1 c-248 -1 -452 1 -455 4 -2 2 35 47 84 98 48 52 108 116
133 143 25 28 79 86 120 130 91 99 144 156 290 315 63 69 134 145 157 170 65
71 121 145 133 174 16 42 13 148 -6 174 l-15 22 -669 0 -668 0 -27 -32z"/>
</g>
</svg>
